<svg version="1.2" xmlns="http://www.w3.org/2000/svg" viewBox="0 0 512 512" width="64" height="64">
	<style>
		.s0 { fill: #000000 } 
	</style>
	<path class="s0" d="m337.5 84.94c7.16 6.13 13.11 12.74 15.5 22.06 1.61-0.09 1.61-0.09 3.25-0.19 13.2 0.05 23.97 5.77 33.39 14.61 10.96 11.96 12.87 25.68 12.55 41.33q-0.02 1.91-0.04 3.88-0.06 4.69-0.15 9.37 1.41 0.45 2.86 0.92c6.47 2.23 11.55 7.13 16.14 12.08q0.7 0.69 1.43 1.41c9.79 10.31 12.69 23.69 12.82 37.4 0.21 7.62 1.41 12.93 5.32 19.6 5.55 10.03 4.1 22.78 1.41 33.44-1.88 6.03-4.49 11.32-8.48 16.21-1.76 2.68-1.76 2.68-1.11 4.74q0.85 2.2 1.72 4.4c4.18 13.19 1.79 27.67-4.42 39.74-2.02 3.55-3.99 6.55-6.88 9.44-3.47 3.68-4.14 8.04-5.28 12.86-3.14 12.82-10.94 23.25-21.84 30.64-7.57 4.49-15.77 7.93-24.69 7.12q-0.38 1.08-0.77 2.19c-5.41 12.39-17.16 19.89-29.23 24.81-15.06 4.89-30.51 3.79-44.68-3.35-13.61-7.74-22.52-18.68-27.32-33.65-1.81-7.17-2.29-14-2.26-21.37q-0.01-1.65-0.01-3.34-0.01-5.51 0-11.02-0.01-3.96-0.02-7.93-0.02-9.62-0.01-19.25 0-7.83-0.01-15.66 0-1.11 0-2.26 0-2.27 0-4.54-0.02-21.25 0-42.5 0-19.42-0.03-38.83-0.03-19.97-0.02-39.94 0-11.2-0.02-22.39-0.02-9.54 0-19.07 0.01-4.86 0-9.71-0.02-5.28 0.01-10.56-0.02-1.51-0.03-3.06c0.11-14.39 4.17-25.79 13.97-36.24 15.47-14.86 39.77-16.71 56.93-3.39zm-49.5 14.06c-7.07 8.57-8.3 16.31-8.27 27.13q0 1.66-0.01 3.37-0.02 5.58-0.01 11.16-0.01 4.01-0.02 8.02-0.02 9.75-0.02 19.5-0.01 7.93-0.02 15.86-0.02 22.51-0.02 45.02 0 1.2 0 2.45 0 1.2 0 2.45 0 19.66-0.05 39.33-0.04 20.21-0.04 40.42 0.01 11.34-0.02 22.68-0.03 9.65-0.01 19.31 0.01 4.92-0.01 9.84-0.02 5.35 0.01 10.7-0.02 1.53-0.04 3.1c0.12 12.24 4.27 22.63 12.53 31.66 9.8 8.61 20.98 12.37 33.88 12.21 12.84-0.87 22.69-7.94 31.12-17.21-3.15-1.65-6.37-2.92-9.69-4.19-8.47-3.52-16.26-8.99-21.31-16.81-1.06-3.25-1.06-3.25-1-6 1.06-1.87 1.06-1.87 3-3 2.87-0.36 2.87-0.36 6 0 2.06 1.94 2.06 1.94 4 4.56 6.34 7.59 15.11 12.27 25 13.44 11.05 0.75 21.94-2.82 30.62-9.69 7.42-6.75 11.34-15.06 12.75-24.92 0.87-5.95 2.26-8.52 6.75-12.48 7.76-7.89 10.09-18.29 10.15-28.95-0.29-3.23-1.13-5.93-2.27-8.96q-1.53 0.63-3.11 1.28-2.04 0.83-4.08 1.66-1 0.41-2.04 0.84c-13.17 5.33-27.73 4.65-40.77-0.78-12.84-5.67-19.91-14.77-26-27-1.46-4.37-1.06-8.4-1-13 3.3 0 6.6 0 10 0q0.55 2.19 1.12 4.44c3.12 10.3 10.07 19.13 19.5 24.37 9.47 4.34 19.43 5.29 29.38 2.19 10.31-3.87 19.24-10.92 24-21 3.96-9.17 4.91-19.97 1.25-29.37-0.99-2.18-2.03-4.27-3.27-6.32-3.25-5.73-3.49-10.62-3.48-17.12-0.19-8.05-0.58-14.98-4.5-22.19q-0.63-1.17-1.28-2.37c-6.28-10.35-15.18-16.44-26.54-20.24-13.23-2.37-24.92-0.19-35.99 7.36-8.66 6.66-13.4 15.15-17.19 25.25q-1.91 0.09-3.88 0.19-1.07 0.05-2.17 0.1-0.96-0.14-1.95-0.29c-2-3-2-3-1.93-4.91 3.26-14.17 11.34-24.66 23.46-32.63 12.58-7.45 24.2-7.74 38.47-7.46q0.17-6.22 0.25-12.44 0.05-1.74 0.1-3.53c0.11-9.99-2.26-17.25-8.45-25.11-7.53-7.62-16.2-10.92-26.71-11.29-10.18 0.17-17.62 3.7-25.19 10.37-1.3 1.45-1.3 1.45-2.62 2.94-2.38 2.06-2.38 2.06-5.57 2.06-2.81-1-2.81-1-4.81-4 0.45-5.84 3.92-9.12 8-13 4.96-3.89 10.12-6.75 16-9-3.73-8.87-9.43-14.3-18.2-18.29-12.17-4.8-24.84-0.59-33.8 8.29z"/>
	<path class="s0" d="m228 85c9.85 8.38 15.29 18.19 17 31 0.15 3.62 0.15 7.24 0.15 10.86q0 1.64 0.01 3.33 0.01 5.51 0.02 11.02 0.01 3.95 0.02 7.91 0.02 11.86 0.04 23.72 0 5.6 0.01 11.2 0.03 18.62 0.04 37.23 0 4.83 0.01 9.66 0 1.19 0 2.42 0.01 19.42 0.06 38.83 0.05 19.96 0.06 39.92 0 11.19 0.03 22.39 0.04 9.54 0.02 19.08 0 4.85 0.02 9.71c0.11 21.2-0.98 40.41-16.3 56.66-11.4 10.74-24.7 15.13-40.06 16.37-14.47-0.54-28.67-6.08-39.15-16.12-8.98-9.95-8.98-9.95-8.98-14.19q-1.35 0.12-2.75 0.25c-11.08-0.07-21.66-6.25-29.69-13.43-7.62-7.86-12.8-17.34-15-28.07-1.21-5.68-3.73-8.8-7.49-13.12-9.05-11.5-10.75-24.74-9.59-38.83 0.47-3.41 1.23-6.01 2.52-9.17 0.91-2.3 0.91-2.3 1-4.63-1.4-2.76-3.12-4.95-5.07-7.35-7.01-9.64-8.17-23.46-6.43-34.94 1.06-5.15 2.11-9.43 5.13-13.77 3.35-5.39 2.9-11.28 3.07-17.43 0.43-14.05 4.76-27.33 14.49-37.88 12.94-11.63 12.94-11.63 18.81-11.63q-0.03-1.21-0.06-2.46-0.11-4.61-0.16-9.22-0.05-2.93-0.13-5.87c-0.15-14.47 3.57-26.83 13.38-37.7 8.88-8.5 20.19-13.79 32.53-13.87q1.7 0.06 3.44 0.12 0.31-1.2 0.63-2.44c4.1-10.65 12.65-20.09 23.12-24.79 15.58-5.85 31.64-5.1 45.25 5.23zm-50 14c-2.22 2.88-4.18 5.85-6 9 1.46 2.92 3.55 3.29 6.5 4.63 7.11 3.47 13.37 7.49 17.25 14.56 0.32 3.55-0.62 5.02-2.75 7.81-3.19-0.12-3.19-0.12-7-1-1.21-1.4-2.4-2.81-3.49-4.31-5.06-5.67-13.33-9.26-20.77-10.03-11.3-0.12-19.95 2.02-28.73 9.35-5.56 5.51-9.65 12.12-10.24 20.06 0.02 1.58 0.02 1.58 0.03 3.2 0.01 1.73 0.01 1.73 0.02 3.5q0.03 1.78 0.06 3.61 0.01 1.81 0.02 3.67 0.04 4.48 0.1 8.95 1.7-0.07 3.45-0.14c18.23-0.52 32.55 3.75 46.15 16.45 6.36 7.13 11.46 16.1 12.4 25.69q-0.99 1.48-2 3c-1.95 0.29-1.95 0.29-4.12 0.19q-1.91-0.09-3.88-0.19-0.76-1.6-1.54-3.25c-6.56-13.67-12.97-22.64-27.58-28.69-11.98-3.44-24.54-1.6-35.3 4.26-10.05 6.17-15.79 14.86-19.71 25.83-0.9 3.99-1.03 7.51-1.05 11.58-0.04 9.92-1.13 17.05-6.23 25.59-3.78 6.37-3.37 14.19-2.13 21.34 2.82 10.48 8.57 19.16 17.54 25.34 10.86 5.89 21.1 7.38 33 4 9.14-3.2 16.88-9.42 21.63-17.92q1.24-2.74 2.33-5.54c1.13-2.77 2.25-5.13 4.04-7.54 2.8-0.67 5.09-0.24 8 0 1.5 10.36-3.2 18.78-9.12 26.91-8.26 9.76-19.27 16.01-32.12 17.32-10.26 0.66-19.25-0.03-28.76-4.23q-1.12-0.46-2.28-0.93-2.38-1-4.72-2.07c-3.92 8.81-2.58 18.39 0.66 27.18 2.71 5.71 6.71 10.19 11.15 14.63 2.76 4.03 3.04 7.39 3.68 12.16 1.66 9.85 7.43 18.02 15.38 23.84 8.56 5.64 17.88 8.26 28.13 7.19 10.68-2.2 18.44-6.34 25.19-14.94 2.14-2.65 2.47-2.99 6-3.68 2.81 0.62 2.81 0.62 4.75 1.75 1.06 1.87 1.06 1.87 1.18 4.56-2.55 7.52-9.41 13.32-16.12 17.31-3.05 1.42-6.13 2.7-9.27 3.92-2.32 0.92-4.52 1.92-6.73 3.08 8 9.33 18.15 16.12 30.66 17.24 14.19 0.37 25.29-4.48 35.59-13.99 8.84-9.21 11.05-20.07 11.02-32.38 0-1.67 0-1.67 0.01-3.37q0.02-5.59 0.01-11.18 0.01-4.01 0.02-8.02 0.02-9.76 0.02-19.51 0.01-7.94 0.02-15.87 0.02-22.52 0.02-45.03c0-1.21 0-1.21 0-2.45 0-1.22 0-1.22 0-2.46q0-19.67 0.05-39.34 0.04-20.22 0.04-40.44-0.01-11.35 0.02-22.69 0.03-9.66 0.01-19.32-0.01-4.93 0.01-9.85 0.02-5.35-0.01-10.7 0.02-1.53 0.04-3.11c-0.1-10.36-3.03-19.06-10.24-26.58-6.66-5.67-14.34-8.34-23.06-8.16-8.53 0.79-15.19 4.17-21.23 10.21z"/>
	<path class="s0" d="m327 145c6.46 0.46 6.46 0.46 9 3 0.96 6.59-1.38 11.54-5 17-6 6.86-14.4 11.47-23.55 12.2-5.88 0.1-10.44 0.07-15.45-3.2-1.13-2.94-1.13-2.94-1-6 1.13-2.31 1.13-2.31 3-4 3.56-0.97 6.65-0.98 10.31-0.75 5.82 0.05 9.32-1.48 13.69-5.25 3.17-3.34 4.99-6.88 7-11q0.99-0.99 2-2z"/>
	<path class="s0" d="m185 145c3.94 3.94 6.25 8.75 8 14 1.78 1.14 1.78 1.14 4 2 1.11 0.53 1.11 0.53 2.23 1.06 4.22 1.43 8.21 0.93 12.61 0.72 3.58 0.25 5.33 1.06 8.16 3.22 1 2.38 1 2.38 1 5-1.19 2.75-1.19 2.75-3 5-8.14 2.89-18.28 1.45-26-2-6.91-3.96-11.64-9.6-15.38-16.56-0.84-3.32-1-6.04-0.62-9.44 2.62-3.01 5.09-3.78 9-3z"/>
	<path class="s0" d="m180 309c2.45 2.01 3.76 4.17 5.13 7q0.49 1.02 1 2.06c0.87 1.94 0.87 1.94 1.87 4.94 1.78 1.14 1.78 1.14 4 2 1.09 0.53 1.09 0.53 2.2 1.06 4.5 1.51 8.92 0.92 13.62 0.72 3.18 0.22 3.18 0.22 5.05 1.54 1.74 2.58 2.07 4.58 2.13 7.68-2.33 3.19-4.2 4.27-8 5-9.77 0.89-18.49-1-26.18-7.26-5.43-5.2-9.48-10.76-10.13-18.37 0.31-3.37 0.31-3.37 1.44-5.31 2.76-1.56 4.75-1.45 7.87-1.06z"/>
	<path class="s0" d="m334.88 308.75c3.12 0.25 3.12 0.25 5 1.31 1.85 3.2 1.59 5.27 1.12 8.94-2.85 8.45-8.23 14.69-15.96 19.13-7.32 3.32-16.41 4.44-24.1 1.75-2.94-1.88-2.94-1.88-4.19-4.75 0.25-3.13 0.25-3.13 1.88-6 4.53-2.86 7.89-2.26 13.14-2.07 4.56-0.08 7.75-1.09 11.23-4.06 2-2.52 3.52-5.16 5-8 3.55-5.96 3.55-5.96 6.88-6.25z"/>
	<path class="s0" d="m131 345c2.45 2 3.59 4 4.81 6.88 2.41 4.99 5.46 7.76 10.47 10.26 4.23 1.34 8.28 0.79 12.66 0.54 3.06 0.32 3.06 0.32 5.47 2.1 1.59 2.22 1.59 2.22 1.53 5.85-0.94 3.37-0.94 3.37-3.94 5.37-10.79 2.01-19.39 0.72-28.63-5.16-5.34-4.15-9.19-9.44-11.37-15.84-0.53-6.1-0.53-6.1 1.12-8.94 2.77-1.56 4.76-1.45 7.88-1.06z"/>
	<path class="s0" d="m388.89 206.74c7.27 4.34 12.41 10.16 15.11 18.26 0.44 6.19 0.44 6.19-1.06 8.94-3.5 1.92-5.01 2.04-8.94 1.06-2.08-2.87-3.65-5.81-5.23-8.98-2.38-4.06-5.14-6.23-9.33-8.27-4.3-0.94-8.26-0.71-12.64-0.43-2.8-0.32-2.8-0.32-5.17-2.1-1.63-2.22-1.63-2.22-1.63-5.85 1-3.37 1-3.37 2.59-4.56 8.01-2.7 18.77-1.68 26.3 1.93z"/>
	<path class="s0" d="m383.94 344.75c3.06 0.25 3.06 0.25 6.06 2.25 0.95 7.91-1.77 12.72-6.12 19.13-5.52 6.18-13.64 10.26-21.88 10.87-10.66-0.16-10.66-0.16-15-3-0.93-3.06-1.18-5.19-0.5-8.31 2.43-2.74 4.94-2.46 8.5-2.69 1.95 0.09 1.95 0.09 3.94 0.19 5.32 0.05 9.67-1.99 13.57-5.58 2.83-3.22 4.66-6.77 6.49-10.61 2-2 2-2 4.94-2.25z"/>
	<path class="s0" d="m189.86 244.74c7.3 4.28 12.44 10.17 15.14 18.26 0.45 6.23 0.45 6.23-1.13 8.94-2.76 1.56-4.75 1.45-7.87 1.06-2.45-2-3.59-4-4.81-6.88-2.49-5.15-5.57-8.04-10.97-10.26-4.52-1.21-8.66-0.81-13.29-0.54-2.93-0.32-2.93-0.32-4.8-2.17-1.39-2.65-1.58-4.19-1.13-7.15 5.73-7.64 21.39-4.8 28.86-1.26z"/>
	<path class="s0" d="m150.19 205.63c1.81 2.37 1.81 2.37 1.81 6-1 3.37-1 3.37-4 5.37-2.67 0.09-2.67 0.09-5.75-0.06-6.7-0.11-10.14 1.21-15.87 4.62-3.02 3.09-4.56 6.4-6.36 10.3-1.02 2.14-1.02 2.14-2.02 3.14-6.17 0.46-6.17 0.46-8.94-1.06-1.72-3.15-1.47-5.4-1.06-8.94 3.48-9.42 9.26-14.41 18-19 7.9-3.38 16.33-4.38 24.19-0.37z"/>
	<path class="s0" d="m338.13 241.75q1.04-0.01 2.12-0.02c6.8 0.02 6.8 0.02 9.75 2.27 1 3.38 1 3.38 1 7-1.61 2.23-1.61 2.23-4 4-2.95 0.25-2.95 0.25-6.25 0-5.94-0.18-9.97 0.38-14.75 4-3.32 3.32-5.15 7.1-7.07 11.33-0.93 1.67-0.93 1.67-2.93 2.67-5.22 0.44-5.22 0.44-7.87-1.06-1.82-3.13-1.54-5.37-1.13-8.94 3.26-8.82 8.84-14.5 17-19 4.72-1.97 9.07-2.31 14.13-2.25z"/>
</svg>